<?xml version="1.0" encoding="UTF-8"?>
<svg version="1.1" xmlns="http://www.w3.org/2000/svg" width="798" height="899">
<path d="M0 0 C6.12035752 5.06769329 9.30177697 10.2388796 10.46194553 18.14996529 C10.56204394 19.28360449 10.66214235 20.41724369 10.76527405 21.5852356 C10.88437637 22.89401672 11.0034787 24.20279785 11.12619019 25.55123901 C11.24971384 26.99003916 11.37309152 28.42885185 11.49633789 29.86767578 C11.63232571 31.39279575 11.76894399 32.91785962 11.90614319 34.44287109 C12.27639783 38.57951977 12.63754734 42.7169176 12.9968636 46.8545289 C13.37596976 51.20445808 13.76277391 55.55370338 14.14854431 59.90304565 C14.79647697 67.22122747 15.43874492 74.53988908 16.07739258 81.85888672 C16.81154099 90.27183586 17.55333086 98.68408232 18.29961973 107.09596264 C19.02094673 115.22742572 19.73785506 123.35927203 20.45245171 131.49132919 C20.75465223 134.9302716 21.05813029 138.36909751 21.36265755 141.80783463 C22.28180613 152.20213587 23.16704932 162.59842897 24 173 C24.09105389 174.10415001 24.18210777 175.20830002 24.27592087 176.34590912 C24.49864825 179.13182258 24.69622637 181.9178682 24.88061523 184.70654297 C24.97228391 185.81654002 24.97228391 185.81654002 25.06580448 186.94896126 C25.44321007 193.63495093 23.84367025 199.5767034 19.80078125 204.890625 C7.20822806 216.83081673 -4.41608922 221.73035691 -22 221.5 C-23.18078125 221.51546875 -24.3615625 221.5309375 -25.578125 221.546875 C-39.46142095 221.48571511 -52.93855041 216.83278028 -63 207 C-75.33236069 189.98869487 -68.05153952 162.23087511 -66.27178741 142.36370873 C-65.96270853 138.90181113 -65.65916274 135.43943677 -65.35554963 131.97705621 C-64.63937936 123.81089623 -63.9143348 115.64555912 -63.18334961 107.48071289 C-62.43181766 99.08477533 -61.69475564 90.6876556 -60.96477526 82.28981906 C-60.3340636 75.03936442 -59.6948342 67.78969557 -59.04872686 60.54059666 C-58.66439474 56.22786844 -58.28312475 51.9149289 -57.90993309 47.60122108 C-57.55942618 43.55440297 -57.19822133 39.50867662 -56.82894325 35.46352959 C-56.6957832 33.98569057 -56.5662908 32.50751545 -56.44087219 31.02899933 C-55.46730139 19.59254825 -54.33210328 9.33210328 -45.875 0.875 C-32.47338595 -7.86518308 -13.95398796 -7.92131774 0 0 Z " fill="#FDBB2F" transform="translate(420,558)"/>
<path d="M0 0 C1.60693726 0.00737183 1.60693726 0.00737183 3.24633789 0.01489258 C17.53590827 0.22703314 28.83175357 3.61595235 39.51953125 13.34375 C48.97281816 23.72382975 47.81046752 36.17201859 47.3125 49.3125 C46.64919046 60.53115973 45.62040584 71.72431529 44.61721897 82.91671848 C44.31060945 86.34878859 44.00976565 89.78135561 43.70871997 93.21391749 C42.99839896 101.31025584 42.27782195 109.40563558 41.55078125 117.50048828 C40.80386391 125.81892018 40.07561113 134.13884302 39.35612416 142.45968843 C38.73365727 149.65019211 38.0992009 156.8395712 37.45531535 164.02818847 C37.07264 168.30218139 36.69449008 172.57644735 36.32816315 176.85187531 C35.98407044 180.86218879 35.62494845 184.87088415 35.25455093 188.87885094 C35.12185061 190.34161859 34.99431841 191.80486659 34.87257767 193.26858711 C33.23891844 212.81056881 33.23891844 212.81056881 26.1875 219.6875 C16.57918379 226.9815551 4.98889418 228.05516818 -6.6875 227.3125 C-15.29851647 225.88739489 -21.65829969 221.7548222 -27.5625 215.4375 C-32.70850872 207.86984011 -32.43027876 198.0134081 -33.19970703 189.1418457 C-33.33740955 187.60820908 -33.47564842 186.07462054 -33.61437988 184.54107666 C-33.98813105 180.38997379 -34.35371228 176.2381901 -34.71729517 172.08618569 C-35.02300424 168.60310411 -35.33260172 165.12037239 -35.64213836 161.63762921 C-36.37394408 153.40240717 -37.09898464 145.16660853 -37.81982422 136.93041992 C-38.55906286 128.48536995 -39.30964789 120.04138407 -40.06596863 111.59784824 C-40.71815153 104.31223075 -41.36305881 97.02599298 -42.0023793 89.73923558 C-42.38281856 85.40393581 -42.76582302 81.06890612 -43.1558876 76.73446083 C-45.93972221 45.73661125 -45.93972221 45.73661125 -46.02294922 32.86010742 C-46.0315906 32.04253369 -46.04023197 31.22495996 -46.04913521 30.38261127 C-45.99094634 25.05806232 -45.18145345 21.14032374 -41.64453125 17.08984375 C-40.99871094 16.50332031 -40.35289062 15.91679688 -39.6875 15.3125 C-38.94886719 14.61253906 -38.21023438 13.91257812 -37.44921875 13.19140625 C-26.49316062 3.66819783 -14.30941882 -0.07660407 0 0 Z " fill="#FDBB2F" transform="translate(396.6875,109.6875)"/>
<path d="M0 0 C10.88535821 8.78224229 18.75286096 23.56979909 20.26611328 37.43896484 C21.03516521 48.72624795 21.10992935 60.31419521 13.37109375 69.29296875 C7.58667466 74.86190308 -0.15463446 77.72749059 -7.375 81 C-8.985543 81.74382302 -10.59547892 82.48896177 -12.20483398 83.23535156 C-17.12684383 85.51174104 -22.06203666 87.75847327 -27 90 C-28.49271612 90.67894778 -29.98539323 91.35798133 -31.47802734 92.03710938 C-37.04689784 94.56922952 -42.61730574 97.09788667 -48.19287109 99.61523438 C-56.68889763 103.45672157 -65.11491184 107.42046418 -73.5 111.5 C-84.69523584 116.94637612 -95.98720323 122.14798328 -107.34667969 127.24047852 C-114.54292985 130.47390352 -121.67892444 133.79357728 -128.75390625 137.28515625 C-130.89753936 138.33170246 -133.04192682 139.37668967 -135.18643188 140.42144775 C-136.53932818 141.08758196 -137.88784 141.76271263 -139.23129272 142.44769287 C-148.31762069 147.07891076 -157.18368539 150.41453843 -167.40576172 147.25683594 C-176.76116847 143.23676615 -183.79074433 134.90742137 -188 125.84765625 C-190.85998421 118.24394822 -192.39548613 108.74617835 -189.90234375 100.859375 C-187.03506895 94.95105118 -182.1628588 90.97783687 -176.91796875 87.21875 C-175.94593506 86.52136719 -174.97390137 85.82398438 -173.97241211 85.10546875 C-169.41587022 81.87790265 -164.84059852 78.67891473 -160.25 75.5 C-158.23176284 74.09896985 -156.21353392 72.69792783 -154.1953125 71.296875 C-153.17211914 70.58724609 -152.14892578 69.87761719 -151.09472656 69.14648438 C-136.68908485 59.15481492 -122.30648803 49.13318079 -108 39 C-97.54709118 31.59628117 -87.05887705 24.24614206 -76.53564453 16.94262695 C-71.30378225 13.30878301 -66.08775225 9.65493443 -60.89697266 5.96264648 C-58.1956692 4.04371964 -55.48588863 2.1372273 -52.77050781 0.23828125 C-51.14361617 -0.89955581 -49.52082358 -2.04324785 -47.8984375 -3.1875 C-31.07163671 -14.56336532 -15.62174299 -11.85296153 0 0 Z " fill="#FDBA2F" transform="translate(676,261)"/>
<path d="M0 0 C7.56227318 6.90395029 13.56564348 17.08742778 14.3359375 27.34375 C14.60211739 35.54413829 13.870377 41.86715561 8.1875 48.03515625 C4.37713187 51.55423591 0.14806472 54.31523646 -4.19921875 57.125 C-8.66905176 60.02472161 -13.01688395 63.09616426 -17.375 66.16015625 C-18.22989014 66.76029541 -19.08478027 67.36043457 -19.96557617 67.97875977 C-21.72603518 69.21492415 -23.48620509 70.45150033 -25.24609375 71.68847656 C-29.45189505 74.64284887 -33.66364969 77.58870207 -37.875 80.53515625 C-39.54169728 81.70177919 -41.2083639 82.86844592 -42.875 84.03515625 C-72.875 105.03515625 -72.875 105.03515625 -75.37573242 106.78564453 C-77.03998828 107.95063989 -78.70421361 109.11567885 -80.3684082 110.28076172 C-84.57170923 113.22336036 -88.77556181 116.16516529 -92.98046875 119.10546875 C-93.8214209 119.69368408 -94.66237305 120.28189941 -95.52880859 120.88793945 C-97.20993827 122.06382309 -98.89125165 123.23944414 -100.57275391 124.41479492 C-104.53137262 127.18426797 -108.48304819 129.96256217 -112.41796875 132.765625 C-119.04995045 137.48892606 -125.69931715 142.18176977 -132.5 146.66015625 C-133.56476563 147.36398437 -134.62953125 148.0678125 -135.7265625 148.79296875 C-142.50507047 152.54385529 -149.16017112 153.57849373 -156.6640625 151.91796875 C-170.22865296 147.95724854 -181.41712159 138.63331847 -188.390625 126.4296875 C-195.68326129 112.20904674 -199.23308857 99.07848278 -196.2265625 83.0859375 C-193.48423172 74.68315473 -188.96015018 70.00354686 -181.19799805 65.91918945 C-177.46157138 64.04347714 -173.66696519 62.29502754 -169.875 60.53515625 C-167.76007135 59.5397959 -165.64551486 58.54364454 -163.53125 57.546875 C-152.53035552 52.37695133 -141.49596631 47.27949661 -130.45703125 42.19140625 C-129.65519913 41.82182297 -128.853367 41.45223969 -128.02723694 41.07145691 C-124.72732305 39.55058057 -121.42739944 38.02972604 -118.12710571 36.50967407 C-106.55718502 31.17974865 -95.01676099 25.79140644 -83.5 20.34765625 C-67.03802924 12.5674634 -50.47926872 5.006459 -33.875 -2.46484375 C-32.47048584 -3.09749146 -32.47048584 -3.09749146 -31.03759766 -3.74291992 C-29.82982666 -4.28396362 -29.82982666 -4.28396362 -28.59765625 -4.8359375 C-27.92613525 -5.13685303 -27.25461426 -5.43776855 -26.56274414 -5.74780273 C-16.91598119 -9.84624665 -7.7956461 -6.09034851 0 0 Z " fill="#FDBB2F" transform="translate(295.875,487.46484375)"/>
<path d="M0 0 C6.50479965 3.66003394 12.35665599 8.25439646 18.25390625 12.8046875 C22.36026412 15.96188235 26.63103049 18.81366867 30.96484375 21.6484375 C34.73501545 24.15567158 38.43161646 26.75648686 42.125 29.375 C42.83994629 29.8817627 43.55489258 30.38852539 44.29150391 30.91064453 C45.0241748 31.42997559 45.7568457 31.94930664 46.51171875 32.484375 C51.30717108 35.88342285 56.12063683 39.256387 60.9375 42.625 C62.19143555 43.50212646 62.19143555 43.50212646 63.47070312 44.39697266 C65.17262075 45.58733688 66.87460665 46.77760351 68.57666016 47.96777344 C72.7604306 50.89376733 76.94264524 53.8219831 81.125 56.75 C82.79165902 57.91667759 84.45832569 59.08334425 86.125 60.25 C89.45833333 62.58333333 92.79166667 64.91666667 96.125 67.25 C96.9504834 67.82782227 97.7759668 68.40564453 98.62646484 69.00097656 C100.28830991 70.16430058 101.95009405 71.32771164 103.61181641 72.49121094 C108.71683958 76.06542799 113.82409702 79.63642115 118.93334961 83.20458984 C121.44688072 84.96284227 123.95596748 86.72730213 126.46484375 88.4921875 C129.39482448 90.55057265 132.34191201 92.57686702 135.31640625 94.5703125 C142.7714294 99.61933198 148.16169808 103.86009425 151.125 112.75 C152.3715176 124.4795263 149.09198364 135.25677361 141.9765625 144.59765625 C136.80999505 150.60351841 130.63901647 155.82668269 122.62890625 157.16796875 C110.10706409 157.8404044 98.35290051 150.57566123 87.41845703 145.16610718 C83.76856334 143.36173488 80.10869996 141.57779568 76.44921875 139.79296875 C75.72399017 139.43892471 74.9987616 139.08488068 74.2515564 138.72010803 C68.41340946 135.87602238 62.53791164 133.12295847 56.625 130.4375 C55.70726807 130.02056885 54.78953613 129.6036377 53.84399414 129.17407227 C52.87196045 128.73248779 51.89992676 128.29090332 50.8984375 127.8359375 C41.99466087 123.7902685 33.12342443 119.67418858 24.25 115.5625 C23.37199738 115.15587128 22.49399475 114.74924255 21.58938599 114.33029175 C12.20970698 109.98521667 2.83733244 105.62548582 -6.51171875 101.21484375 C-7.27381653 100.85538162 -8.03591431 100.49591949 -8.82110596 100.12556458 C-12.37006448 98.45064048 -15.91744131 96.77247912 -19.46240234 95.08911133 C-26.78392294 91.62148804 -34.13821275 88.27021755 -41.60401917 85.12237549 C-50.40598097 81.35511242 -55.02592201 76.49790451 -58.875 67.75 C-63.06793945 53.27504752 -59.32504551 37.55087298 -52.375 24.6875 C-42.18238334 7.05696188 -21.05732285 -9.78072373 0 0 Z " fill="#FDBA2F" transform="translate(158.875,252.25)"/>
<path d="M0 0 C3.38365914 1.67131495 6.77701793 3.32273515 10.16976929 4.97549438 C10.85827469 5.31128006 11.54678009 5.64706573 12.25614929 5.99302673 C23.54644092 11.48795851 34.96746596 16.70555066 46.37289429 21.95596313 C49.41326425 23.35858072 52.45326856 24.76198855 55.49325562 26.16543579 C57.54490958 27.11230276 59.5968321 28.05858802 61.64901733 29.00430298 C68.62376895 32.21972147 75.5916561 35.44959405 82.55648804 38.68643188 C85.29633137 39.95894785 88.03622497 41.23135555 90.77612305 42.50375366 C92.56123218 43.33322985 94.34605281 44.16332725 96.1305542 44.99411011 C105.43718602 49.32668426 114.74159139 53.64257817 124.20153809 57.63279724 C133.9753943 61.81563682 142.23070269 67.60973587 146.50570679 77.60440063 C149.5385215 89.32581965 148.1303423 102.9599748 143.37289429 113.95596313 C142.98359741 114.87248657 142.59430054 115.78901001 142.19320679 116.73330688 C135.59672057 130.33612019 123.58208881 141.76414206 109.37289429 146.95596313 C100.66570583 149.47646506 93.36270406 147.80054055 85.37289429 143.95596313 C82.50248518 142.2123307 79.85138701 140.2452895 77.18539429 138.20596313 C75.61398875 137.0385617 74.04099344 135.87329802 72.46664429 134.70986938 C71.22914429 133.79165405 71.22914429 133.79165405 69.96664429 132.85488892 C65.43114545 129.53437782 60.80716299 126.34224652 56.18539429 123.14346313 C55.22053101 122.47427856 54.25566772 121.80509399 53.26156616 121.1156311 C51.28863704 119.74757254 49.31532751 118.38006244 47.34164429 117.01309204 C42.45209669 113.6249894 37.56866187 110.22810826 32.68539429 106.83096313 C31.73148804 106.16749878 30.77758179 105.50403442 29.79476929 104.82046509 C21.13024642 98.79184514 12.48186933 92.74033284 3.83773804 86.68252563 C1.31907342 84.91826294 -1.20072499 83.15563088 -3.72085571 81.39346313 C-12.38498022 75.33437415 -21.03940427 69.2623579 -29.66885376 63.15396118 C-33.41935131 60.5023697 -37.18511271 57.87591581 -40.97329712 55.2784729 C-61.49518404 41.1942904 -61.49518404 41.1942904 -63.62710571 31.95596313 C-64.86605122 20.84892536 -60.91697887 10.00022519 -54.62710571 0.95596313 C-37.58942973 -18.16730407 -19.97911871 -9.87461047 0 0 Z " fill="#FDBB2F" transform="translate(548.6271057128906,492.0440368652344)"/>
</svg>
